<svg width="26" height="26" viewBox="0 0 26 26" fill="none" xmlns="http://www.w3.org/2000/svg">
<path d="M11.9167 4.33333H8.45C6.62983 4.33333 5.71974 4.33333 5.02453 4.68756C4.413 4.99915 3.91582 5.49634 3.60423 6.10786C3.25 6.80308 3.25 7.71316 3.25 9.53333V17.55C3.25 19.3702 3.25 20.2803 3.60423 20.9755C3.91582 21.587 4.413 22.0842 5.02453 22.3958C5.71974 22.75 6.62983 22.75 8.45 22.75H16.4667C18.2868 22.75 19.1969 22.75 19.8921 22.3958C20.5037 22.0842 21.0008 21.587 21.3124 20.9755C21.6667 20.2803 21.6667 19.3702 21.6667 17.55V14.0833M14.0833 18.4167H7.58333M16.25 14.0833H7.58333M21.7981 4.2019C23.0673 5.47111 23.0673 7.52889 21.7981 8.7981C20.5289 10.0673 18.4711 10.0673 17.2019 8.7981C15.9327 7.52889 15.9327 5.47111 17.2019 4.2019C18.4711 2.9327 20.5289 2.9327 21.7981 4.2019Z" stroke="#475467" stroke-width="2" stroke-linecap="round" stroke-linejoin="round"/>
</svg>
