<svg width="29" height="30" viewBox="0 0 29 30" fill="none" xmlns="http://www.w3.org/2000/svg">
<path d="M6.79253 13.9721C6.70965 13.438 6.66666 12.8908 6.66666 12.3337C6.66666 6.44262 11.4737 1.66699 17.4035 1.66699C23.3333 1.66699 28.1403 6.44262 28.1403 12.3337C28.1403 13.6644 27.895 14.9383 27.4469 16.113C27.3538 16.357 27.3073 16.479 27.2862 16.5742C27.2652 16.6686 27.2572 16.735 27.2549 16.8316C27.2526 16.9291 27.2658 17.0366 27.2923 17.2514L27.829 21.6117C27.8871 22.0837 27.9162 22.3197 27.8377 22.4913C27.7689 22.6416 27.6467 22.761 27.4948 22.8263C27.3215 22.9009 27.0862 22.8664 26.6157 22.7974L22.3686 22.1749C22.1469 22.1424 22.036 22.1261 21.935 22.1267C21.8351 22.1273 21.766 22.1346 21.6682 22.1552C21.5694 22.176 21.4432 22.2232 21.1907 22.3178C20.0129 22.759 18.7366 23.0003 17.4035 23.0003C16.8459 23.0003 16.2983 22.9581 15.7636 22.8767M8.84215 28.3337C12.7953 28.3337 16 25.0504 16 21.0003C16 16.9502 12.7953 13.667 8.84215 13.667C4.88895 13.667 1.68425 16.9502 1.68425 21.0003C1.68425 21.8144 1.81374 22.5976 2.05277 23.3293C2.15381 23.6386 2.20434 23.7933 2.22092 23.8989C2.23823 24.0092 2.24126 24.0712 2.23481 24.1826C2.22864 24.2894 2.20193 24.4101 2.1485 24.6514L1.33337 28.3337L5.32644 27.7883C5.54439 27.7586 5.65337 27.7437 5.74853 27.7443C5.84873 27.745 5.90192 27.7504 6.00018 27.77C6.09351 27.7886 6.23225 27.8376 6.50974 27.9355C7.24083 28.1936 8.02552 28.3337 8.84215 28.3337Z" stroke="#0348B7" stroke-width="1.5" stroke-linecap="round" stroke-linejoin="round"/>
</svg>
