<svg width="6" height="20" viewBox="0 0 6 20" fill="none" xmlns="http://www.w3.org/2000/svg">
<path d="M3.00008 11.0835C3.59839 11.0835 4.08341 10.5985 4.08341 10.0002C4.08341 9.40185 3.59839 8.91683 3.00008 8.91683C2.40177 8.91683 1.91675 9.40185 1.91675 10.0002C1.91675 10.5985 2.40177 11.0835 3.00008 11.0835Z" stroke="#475467" stroke-width="2" stroke-linecap="round" stroke-linejoin="round"/>
<path d="M3.00008 3.50016C3.59839 3.50016 4.08341 3.01514 4.08341 2.41683C4.08341 1.81852 3.59839 1.3335 3.00008 1.3335C2.40177 1.3335 1.91675 1.81852 1.91675 2.41683C1.91675 3.01514 2.40177 3.50016 3.00008 3.50016Z" stroke="#475467" stroke-width="2" stroke-linecap="round" stroke-linejoin="round"/>
<path d="M3.00008 18.6668C3.59839 18.6668 4.08341 18.1818 4.08341 17.5835C4.08341 16.9852 3.59839 16.5002 3.00008 16.5002C2.40177 16.5002 1.91675 16.9852 1.91675 17.5835C1.91675 18.1818 2.40177 18.6668 3.00008 18.6668Z" stroke="#475467" stroke-width="2" stroke-linecap="round" stroke-linejoin="round"/>
</svg>
