<svg width="29" height="24" viewBox="0 0 29 24" fill="none" xmlns="http://www.w3.org/2000/svg">
<path d="M27 19.9997L18.1429 11.9997M10.5238 11.9997L1.66671 19.9997M1 5.33301L11.8866 12.9536C12.7681 13.5707 13.2089 13.8792 13.6884 13.9988C14.1119 14.1043 14.5548 14.1043 14.9783 13.9988C15.4578 13.8792 15.8985 13.5707 16.7801 12.9536L27.6667 5.33301M7.4 22.6663H21.2667C23.5069 22.6663 24.627 22.6663 25.4826 22.2304C26.2353 21.8469 26.8472 21.235 27.2307 20.4823C27.6667 19.6267 27.6667 18.5066 27.6667 16.2663V7.73301C27.6667 5.4928 27.6667 4.37269 27.2307 3.51705C26.8472 2.7644 26.2353 2.15248 25.4826 1.76898C24.627 1.33301 23.5069 1.33301 21.2667 1.33301H7.4C5.15979 1.33301 4.03969 1.33301 3.18404 1.76898C2.43139 2.15248 1.81947 2.7644 1.43597 3.51705C1 4.37269 1 5.4928 1 7.73301V16.2663C1 18.5066 1 19.6267 1.43597 20.4823C1.81947 21.235 2.43139 21.8469 3.18404 22.2304C4.03969 22.6663 5.15979 22.6663 7.4 22.6663Z" stroke="#0348B7" stroke-width="1.5" stroke-linecap="round" stroke-linejoin="round"/>
</svg>
