<svg width="28" height="28" viewBox="0 0 28 28" fill="none" xmlns="http://www.w3.org/2000/svg">
<path d="M11.9994 16.0002L25.9994 2.00023M12.1695 16.4377L15.6737 25.4483C15.9824 26.2421 16.1367 26.639 16.3591 26.7549C16.5519 26.8553 16.7816 26.8555 16.9745 26.7552C17.197 26.6396 17.3518 26.2429 17.6615 25.4495L26.4486 2.93249C26.7281 2.21625 26.8679 1.85813 26.7914 1.6293C26.725 1.43056 26.5691 1.27461 26.3703 1.20822C26.1415 1.13177 25.7834 1.27152 25.0671 1.55103L2.55014 10.3382C1.75671 10.6478 1.36 10.8026 1.24438 11.0251C1.14416 11.2181 1.14429 11.4477 1.24475 11.6405C1.36062 11.8629 1.75752 12.0173 2.55131 12.326L11.562 15.8301C11.7231 15.8928 11.8037 15.9241 11.8715 15.9725C11.9317 16.0154 11.9842 16.068 12.0271 16.1281C12.0755 16.196 12.1068 16.2765 12.1695 16.4377Z" stroke="#0348B7" stroke-width="1.5" stroke-linecap="round" stroke-linejoin="round"/>
</svg>
